<?xml version="1.0" standalone="no"?>
<!DOCTYPE svg PUBLIC "-//W3C//DTD SVG 20010904//EN"
 "http://www.w3.org/TR/2001/REC-SVG-20010904/DTD/svg10.dtd">
<svg version="1.0" xmlns="http://www.w3.org/2000/svg"
 width="308.000000pt" height="308.000000pt" viewBox="0 0 308.000000 308.000000"
 preserveAspectRatio="xMidYMid meet">
<metadata>
Created by potrace 1.11, written by Peter Selinger 2001-2013
</metadata>
<g transform="translate(0.000000,308.000000) scale(0.100000,-0.100000)"
fill="#000000" stroke="none">
<path d="M1399 3016 c-2 -2 -30 -6 -61 -10 -445 -47 -892 -333 -1128 -721 -23
-38 -44 -72 -45 -73 -2 -2 -23 -6 -47 -8 -24 -3 -52 -6 -63 -8 -11 -3 -23 -5
-27 -5 -15 -2 -30 -75 -24 -122 5 -39 13 -56 36 -75 28 -24 29 -25 15 -65 -43
-121 -65 -409 -44 -569 59 -451 332 -854 737 -1089 40 -23 90 -49 110 -58 20
-8 56 -23 78 -34 56 -25 176 -64 231 -75 6 -1 35 -7 65 -14 150 -32 445 -35
588 -5 14 2 50 10 80 16 325 67 677 292 878 562 136 182 208 332 261 542 31
123 33 139 36 310 2 163 -7 252 -44 395 l-17 70 30 24 c29 22 31 27 31 94 0
39 -5 76 -10 81 -10 10 -81 25 -140 30 -6 1 -26 27 -44 59 -135 227 -355 438
-591 564 -134 72 -339 143 -474 164 -21 3 -48 8 -60 11 -25 5 -352 14 -357 9z"/>
</g>
</svg>
